<svg xmlns="http://www.w3.org/2000/svg" version="1.1" xmlns:xlink="http://www.w3.org/1999/xlink" xmlns:svgjs="http://svgjs.dev/svgjs" width="1000" height="1000"><g clip-path="url(#SvgjsClipPath1094)"><rect width="1000" height="1000" fill="#ffffff"></rect><g transform="matrix(4.261161876805075,0,0,4.261161876805075,50,58.56493537237816)"><svg xmlns="http://www.w3.org/2000/svg" version="1.1" xmlns:xlink="http://www.w3.org/1999/xlink" xmlns:svgjs="http://svgjs.dev/svgjs" width="211.21" height="207.19"><svg id="Layer_1" data-name="Layer 1" xmlns="http://www.w3.org/2000/svg" viewBox="0 0 211.21 207.19">
  <defs>
    <style>
      .cls-1 {
        stroke: #fff;
        stroke-width: 4.57px;
      }

      .cls-1, .cls-2 {
        fill: #303f40;
      }

      .cls-3 {
        fill: none;
        stroke: #a4b9b6;
        stroke-width: 18.26px;
      }
    </style>
  <clipPath id="SvgjsClipPath1094"><rect width="1000" height="1000" x="0" y="0" rx="250" ry="250"></rect></clipPath></defs>
  <path class="cls-3" d="M53.73,62.42h5.53c5.53,0,16.6,0,24.9-7.1,8.3-7.1,13.83-21.31,22.13-28.41,8.3-7.1,19.37-7.1,24.9-7.1h5.53"></path>
  <circle class="cls-2" cx="159.68" cy="20.18" r="20.18"></circle>
  <path class="cls-3" d="M53.73,70.8h4.31c4.31,0,12.95,0,19.42,13.82,6.47,13.82,10.78,41.47,17.26,55.29,6.47,13.82,15.11,13.82,19.42,13.82h4.31"></path>
  <path class="cls-1" d="M208.93,155.65c0-27.2-22.05-49.26-49.26-49.26-27.2,0-49.26,22.05-49.26,49.26s22.05,49.26,49.26,49.26c27.2,0,49.26-22.05,49.26-49.26Z"></path>
  <circle class="cls-2" cx="29.15" cy="65.87" r="29.15"></circle>
</svg></svg></g></g></svg>